<?xml version="1.0" encoding="UTF-8"?>
<svg width="35px" height="40px" viewBox="0 0 35 40" version="1.1" xmlns="http://www.w3.org/2000/svg" xmlns:xlink="http://www.w3.org/1999/xlink">
    <title>Symbole</title>
    <g id="2_SignIn-&amp;-SignUp" stroke="none" stroke-width="1" fill="none" fill-rule="evenodd">
        <g id="V1.0/Sign_In/FC_Joined/LG_AccessRequest" transform="translate(-1240.000000, -481.000000)" fill-rule="nonzero">
            <g id="Group-3" transform="translate(1240.000000, 299.000000)">
                <g id="Symbole" transform="translate(0.000000, 182.000000)">
                    <polygon id="Hexagone" fill="#FFFFFF" points="0 10.0143062 0 29.9856939 17.4710744 40 35 29.9856939 35 10.0143062 17.4710744 0"></polygon>
                    <polygon id="Hexagone" fill="#000091" points="3 11.5121602 3 28.4878398 17.4760331 37 32 28.4878398 32 11.5121602 17.4760331 3"></polygon>
                    <g id="Marianne" transform="translate(1.187500, 11.851852)" fill="#FFFFFF">
                        <path d="M23.5026246,12.4220293 C23.3782721,12.1728601 23.1917434,11.9859833 23.0052146,11.736814 C22.8186858,11.4253524 22.5699808,11.1761833 22.5078045,10.8024294 C22.383452,10.4286755 22.5078045,10.1172141 22.5078045,9.74346022 C22.5078045,9.05824481 22.3212757,8.37302948 22.134747,7.75010644 C22.0103945,7.43864488 21.9482183,7.06489104 21.8238657,6.75342951 C21.7616895,6.56655259 21.6995132,6.37967567 21.5751607,6.19279875 C21.5129844,6.13050645 21.5129844,5.94362953 21.5751607,5.88133722 C21.7616895,5.75675261 21.9482183,5.56987569 22.0725708,5.44529108 C22.1969233,5.19612186 22.0725708,4.88466032 21.886042,4.76007572 C21.5751607,4.6354911 21.6373369,5.07153724 21.3886319,5.19612186 C21.3264557,5.19612186 21.3264557,5.19612186 21.2642795,5.19612186 C21.2021032,5.07153724 21.3264557,5.00924494 21.3886319,4.94695263 C21.3886319,4.88466032 21.3886319,4.82236802 21.3264557,4.82236802 C21.1399269,4.82236802 20.9533982,4.76007572 20.8912219,4.6977834 C20.3938119,4.07486035 19.7720493,3.76339881 19.0881105,3.51422959 C19.2746393,3.57652189 19.4611681,3.57652189 19.6476968,3.57652189 C19.9585781,3.63881421 20.3316356,3.57652189 20.5803406,3.45193729 C20.8290456,3.32735267 20.8290456,3.01589114 20.8912219,2.76672192 C20.9533982,2.70442961 20.8912219,2.6421373 20.8912219,2.51755269 C20.8912219,2.39296808 20.7668694,2.26838347 20.7046931,2.14379886 C20.7046931,2.14379886 20.6425169,2.08150655 20.5803406,1.95692194 C20.0829306,1.39629118 18.1554667,-0.223308773 14.5492438,0.0258604507 C12.9948374,0.150445063 11.0673735,0.586491205 8.82902832,1.70775272 C8.76685206,1.70775272 8.7046758,1.77004502 8.58032328,1.77004502 C8.20726572,1.95692194 7.70985571,2.26838347 7.39897441,2.6421373 C7.02591689,3.07818345 6.71503561,3.57652189 6.5906831,4.13715265 C6.03109679,4.51090649 5.65803926,5.07153724 5.34715799,5.632168 C4.97410045,6.37967567 4.47669041,7.00259873 4.47669041,7.81239874 C4.47669041,7.87469103 4.47669041,7.93698333 4.47669041,7.93698333 C4.53886666,8.18615251 4.53886666,8.37302948 4.60104292,8.62219866 C4.72539543,9.12053711 4.84974794,9.61887555 4.91192419,10.1172141 C4.97410045,10.3663833 5.03627671,10.6155525 5.09845296,10.8647217 C5.22280547,11.113891 5.09845296,11.4253524 5.28498173,11.6745217 C5.34715799,11.7991063 5.34715799,11.9859833 5.53368675,12.0482755 C5.53368675,12.1105678 5.53368675,12.1728601 5.53368675,12.2351524 C5.59586301,12.2974447 5.59586301,12.2974447 5.65803926,12.2974447 C5.65803926,12.359737 5.65803926,12.4220293 5.65803926,12.4843217 C6.03109679,12.9203678 6.46633059,13.2941216 6.71503561,13.7924601 C6.83938812,14.0416293 6.27980182,13.9170447 6.03109679,13.8547524 C5.59586301,13.6678755 5.28498173,13.2941216 4.91192419,12.9826601 C4.91192419,12.9826601 4.84974794,13.0449524 4.84974794,13.0449524 C5.03627671,13.3564139 5.72021552,13.7301678 5.34715799,13.979337 C5.16062922,14.1039216 4.91192419,13.8547524 4.78757169,14.0416293 C4.72539543,14.1039216 4.78757169,14.2285062 4.78757169,14.2907985 C4.53886666,14.1039216 4.22798538,14.2285062 3.97928036,14.1039216 C3.79275159,14.0416293 3.73057534,13.7301678 3.54404657,13.7301678 C2.98446027,13.6055832 2.42487397,13.4809986 1.80311141,13.4809986 C1.74093516,13.4809986 1.6787589,13.4809986 1.6787589,13.4809986 C1.1191726,13.4187063 0.559586301,13.3564139 0.0621762557,13.4187063 L0.0621762557,14.0416293 C0.559586301,13.9170447 1.05699635,13.7924601 1.55440639,13.7924601 C1.61658265,13.7924601 1.6787589,13.7924601 1.6787589,13.7924601 C1.80311141,13.7924601 1.98964018,13.7301678 2.11399269,13.7924601 C1.92746393,13.7924601 1.6787589,13.7924601 1.49223013,13.8547524 C0.994820094,13.9170447 0.497410045,14.1039216 0,14.2907985 L0,14.9137216 C0.248705023,14.9760139 0.559586301,14.9760139 0.80829132,15.0383062 C1.1191726,15.1005985 1.43005388,15.1628908 1.74093516,15.2874755 C2.17616895,15.4120601 2.48705023,15.598937 2.86010776,15.7858139 C3.04663653,15.9103985 3.10881278,16.0349831 3.29534155,16.1595677 C3.54404657,16.2841524 3.85492785,16.2841524 4.04145661,16.1595677 C4.10363287,16.1595677 4.22798538,16.1595677 4.29016164,16.1595677 C4.97410045,15.9726908 5.65803926,15.7858139 6.09327305,15.2251831 C6.09327305,15.2874755 6.15544931,15.2874755 6.15544931,15.2874755 C6.03109679,15.6612292 6.03109679,16.0349831 5.78239177,16.408737 C5.78239177,16.4710292 5.72021552,16.5333215 5.84456803,16.5956138 C5.90674429,16.5956138 5.90674429,16.5956138 5.90674429,16.5956138 C5.84456803,16.5956138 5.84456803,16.5956138 5.84456803,16.6579061 C5.84456803,16.7201985 5.96892054,16.6579061 6.03109679,16.7201985 C5.78239177,16.7824908 5.59586301,16.8447831 5.47151049,17.03166 C5.47151049,17.0939523 5.53368675,17.0939523 5.59586301,17.0939523 C5.53368675,17.1562447 5.34715799,17.1562447 5.34715799,17.218537 C5.34715799,17.218537 5.40933424,17.2808292 5.40933424,17.2808292 C5.34715799,17.2808292 5.34715799,17.2808292 5.34715799,17.3431215 C5.34715799,17.4054138 5.34715799,17.4054138 5.34715799,17.4677061 C5.22280547,17.4677061 5.16062922,17.5922907 5.09845296,17.5922907 C5.28498173,17.7168754 5.40933424,17.5922907 5.59586301,17.5922907 C5.09845296,17.7791677 4.72539543,18.0906292 4.22798538,18.2152138 C4.16580913,18.2152138 4.22798538,18.3397984 4.16580913,18.3397984 C4.29016164,18.4020907 4.41451415,18.2775061 4.53886666,18.2775061 C4.29016164,18.464383 4.04145661,18.5889677 3.79275159,18.7135523 L5.28498173,19.5856446 C5.90674429,19.2118907 6.46633059,18.7758446 6.96374063,18.2152138 C6.96374063,18.2152138 7.02591689,18.2775061 7.02591689,18.2775061 C6.90156437,18.7135523 6.65285935,19.0250138 6.27980182,19.3364753 C6.03109679,19.4610599 5.84456803,19.7102292 5.65803926,19.7725215 L6.77721187,20.3954445 C7.02591689,20.2085676 7.21244565,20.083983 7.52332693,19.9593984 C7.58550319,19.9593984 7.64767945,20.0216907 7.77203197,20.0216907 C8.14508946,19.6479369 8.58032328,19.2118907 9.20208581,19.3364753 C9.20208581,19.3987676 9.20208581,19.3987676 9.26426207,19.3987676 C9.26426207,19.3987676 9.26426207,19.3987676 9.26426207,19.3987676 C9.26426207,19.3987676 9.32643833,19.3987676 9.32643833,19.3364753 C9.32643833,19.3987676 9.32643833,19.3987676 9.26426207,19.3987676 C9.07773329,19.5233523 8.95338084,19.6479369 8.76685206,19.7725215 C8.7046758,19.8348138 8.76685206,19.8348138 8.82902832,19.8348138 C9.07773329,19.7102292 9.20208581,19.5856446 9.38861459,19.4610599 C9.32643833,19.5233523 9.32643833,19.5856446 9.32643833,19.6479369 C8.76685206,20.083983 8.33161824,20.5200292 7.89638449,21.0183676 L13.8031287,24.4444444 C13.9896575,24.1952752 14.2383625,23.8215214 14.4870676,23.5100598 C15.6062402,21.8904599 17.2228228,19.7102292 17.7202328,19.2118907 C17.9067616,19.0873061 18.0932904,19.0873061 18.3419954,19.0250138 C19.0881105,19.0250138 19.8964018,19.2118907 20.6425169,19.274183 C20.7046931,19.274183 20.8290456,19.3364753 20.8912219,19.3364753 C21.1399269,19.3987676 21.4508082,19.3364753 21.7616895,19.274183 C22.0725708,19.1495984 22.4456283,18.9627215 22.5699808,18.5889677 C22.6943333,18.2775061 22.7565096,17.9037523 22.5699808,17.5922907 C22.2590996,17.218537 22.8186858,17.03166 23.0052146,16.7824908 C23.1295671,16.5333215 22.8808621,16.408737 22.8808621,16.2218601 C22.8186858,16.1595677 22.632157,16.1595677 22.5699808,16.0349831 C22.8808621,15.9103985 23.3782721,15.598937 23.1295671,15.2251831 C23.0052146,14.9760139 22.7565096,14.6645524 23.0052146,14.4153832 C23.3160958,14.2285062 23.8135059,14.2285062 23.9378584,13.9170447 C24.3109159,13.2941216 23.7513297,12.8580755 23.5026246,12.4220293 Z M21.5751607,10.1795064 C21.5129844,10.2417987 21.6995132,10.304091 21.6995132,10.4286755 C21.6373369,10.4909678 21.5129844,10.5532601 21.4508082,10.5532601 C21.3886319,10.6155525 21.2642795,10.7401371 21.2021032,10.8024294 C21.2642795,10.8024294 21.2021032,10.927014 21.3264557,10.927014 C21.1399269,11.1761833 21.4508082,11.6122294 21.1399269,11.6745217 C20.8290456,11.7991063 20.4559881,11.7991063 20.0829306,11.6745217 C20.2694594,11.6122294 20.5181643,11.736814 20.6425169,11.5499371 C20.6425169,11.4876447 20.6425169,11.4253524 20.6425169,11.3630601 C20.6425169,11.3007678 20.5803406,11.3007678 20.5803406,11.3007678 C20.5181643,11.3630601 20.5181643,11.3630601 20.5181643,11.3630601 C20.5181643,11.3007678 20.3938119,11.1761833 20.3938119,11.1761833 C20.1451068,11.2384755 19.8964018,11.113891 19.709873,10.927014 C19.8342255,10.8647217 19.9585781,10.8024294 20.1451068,10.8647217 C20.2694594,10.8647217 20.2072831,10.6155525 20.3316356,10.5532601 C20.3938119,10.5532601 20.3938119,10.5532601 20.4559881,10.5532601 C20.7046931,10.1795064 21.2642795,10.0549217 21.3264557,9.74346022 C21.3264557,9.68116792 21.0777507,9.68116792 20.8912219,9.61887555 C20.6425169,9.55658325 20.3938119,9.61887555 20.1451068,9.61887555 C19.7720493,9.74346022 19.4611681,9.74346022 19.1502867,9.9303371 C19.3989918,9.74346022 19.709873,9.55658325 20.0207543,9.43199866 C20.2694594,9.36970636 20.4559881,9.24512177 20.7046931,9.24512177 C20.9533982,9.18282948 21.2642795,9.12053711 21.4508082,9.18282948 C21.6995132,9.24512177 22.0103945,9.24512177 22.0725708,9.36970636 C22.0103945,9.74346022 21.8238657,9.9926294 21.5751607,10.1795064 Z" id="Shape"></path>
                    </g>
                </g>
            </g>
        </g>
    </g>
</svg>